<?xml version="1.0" encoding="UTF-8"?>
<svg width="371px" height="372px" viewBox="0 0 371 372" version="1.1" xmlns="http://www.w3.org/2000/svg" xmlns:xlink="http://www.w3.org/1999/xlink">
    <!-- Generator: Sketch 53.2 (72643) - https://sketchapp.com -->
    <title>Group</title>
    <desc>Created with Sketch.</desc>
    <g id="Page-1" stroke="none" stroke-width="1" fill="none" fill-rule="evenodd">
        <g id="Group" transform="translate(5.571650, 0.000000)">
            <path d="M167.369757,130.085938 C142.731736,77.1927083 108.182257,55.7486979 63.7213191,65.7539063 C-2.97008714,80.7617187 -11.2044621,151.722656 11.1510066,208.074219 C33.5064754,264.425781 151.936163,366.835938 167.369757,366.835938 C173.664261,366.835938 292.936163,276.441406 318.193975,208.074219 C343.451788,139.707031 329.654913,76 272.065069,65.7539063 C233.67184,58.9231771 198.773402,80.3671875 167.369757,130.085938 Z" id="Path" stroke="#3F3F3F" stroke-width="10" fill="#D8D8D8"></path>
            <g id="hut" transform="translate(199.428350, 0.000000)" fill="#E30010" fill-rule="nonzero">
                <path d="M136.617194,91.9298017 C133.920374,92.7670039 131.093062,93.1390938 128.135259,92.9530489 C124.090028,92.7204927 120.30578,91.5577118 117,89.60424 C118.870376,86.7205435 120.131792,83.5112683 120.784248,80.1624594 C131.789016,76.1624932 139.488003,65.5114206 140.053466,53.1394322 C140.227454,48.8603986 139.574998,44.76741 138.18309,41 C148.40491,44.9534549 155.494938,55.5115051 154.972973,67.5114036 C154.40751,79.2322347 146.75202,88.813549 136.617194,91.9298017 Z M121.285304,76 C121.937116,59.5990561 106.728172,45.4094754 87,43.6127428 C89.5203392,35.1358505 95.9515496,28.5017608 104.120925,26.0600473 C106.815081,25.2307861 109.639599,24.8622255 112.594479,25.0465058 C126.71707,25.7836269 137.624055,38.268615 136.972243,52.9188964 C136.450793,63.4228717 130.063037,72.1761844 121.285304,76 Z M112.674135,20.9040429 C109.428277,20.716789 106.182419,21.1381102 103.112013,22.0743796 C93.418301,25.0236281 86.1370515,33.0755447 83.5052746,43 C82.4964268,43 81.5314419,42.9531865 80.5664571,43 C79.4260204,39.7698707 78.8558021,36.2588605 79.0312539,32.60741 C79.5576093,20.8104159 87.2336252,11.1668414 97.4975552,8.07715252 C100.217058,7.23451009 103.06815,6.86000234 106.05083,7.04725622 C117.893826,7.65583131 127.499812,16.5503903 130,28.0665036 C125.262802,23.9001049 119.297441,21.2317372 112.674135,20.9040429 Z M75.6120769,32.8997786 C75.4364135,36.617218 75.9194876,40.1952535 77.0173833,43.633885 C74.3824337,43.9591609 71.8353156,44.4703088 69.3321134,45.2137967 C65.5553522,46.3754965 62.0860018,48.0018763 59.0558097,50 C56.6404392,38.1041938 47.6376944,28.5782552 36,26.0689836 L36,25.4648997 C36.5269899,13.7549654 44.2122598,4.18255885 54.4446478,1.06920332 C57.1674291,0.232779446 60.0219579,-0.138964499 63.0082342,0.0469074733 C72.010979,0.511587404 79.6962489,5.71600263 84,13.1973495 C79.0814273,18.3552967 75.9194876,25.2790277 75.6120769,32.8997786 L75.6120769,32.8997786 Z M0.0326876347,71.9324098 C-0.360430093,68.0152872 2.87187122,65.9415164 5.44897633,64.8815892 C4.44434213,61.7478911 3.92018516,58.4298579 4.09490415,54.9274894 C4.61906113,42.9917865 12.4814157,33.2681058 22.9645551,30.0883239 C25.7163792,29.2588156 28.686602,28.8901453 31.7005046,29.0283966 C44.4549909,29.6735698 54.6760518,39.5815857 56.5542809,52.1163779 C50.133358,57.3238468 46.2021808,64.466835 45.8527428,72.2549964 C45.7653833,74.2365995 45.8964225,76.1721189 46.2458605,78.0615545 C36.2431983,77.047711 62.0579291,80.1814091 49.5655213,78.3841411 C49.1287239,76.4486217 48.9103251,74.4209347 48.9976846,72.3471639 C49.5218416,61.2409693 58.2577911,52.1163779 70.4007609,48.4296743 C74.8124154,47.0932443 79.6608674,46.4941549 84.7277181,46.7245739 C103.772088,47.6923336 118.666882,60.7801314 117.968006,75.8956162 C117.662248,82.5777664 114.342587,88.4764922 109.144697,92.9466203 C110.105651,93.4996258 111.241325,94.0065476 112.508038,94.2830504 C113.381632,93.4535421 114.211548,92.5779499 114.954103,91.656274 C118.885281,94.0065476 123.253255,95.4351452 127.926988,95.711648 C131.15929,95.8959832 134.391591,95.481229 137.449173,94.5595531 C144.700011,92.347531 150.640457,87.3704811 154.265876,80.872666 C161.691433,85.9418835 166.408846,94.3291342 165.972048,103.591977 C165.447892,114.790339 157.629217,123.961014 147.058718,127.18688 C146.359842,127.417299 139.458442,130.366662 137.885971,130.965751 C133.037519,132.716935 141.42403,132.763019 145.573606,131.887427 C149.723182,130.965751 148.762228,132.993438 144.787371,135.896717 C142.750653,137.384358 139.899686,138.741454 135.482296,139.277217 C133.884056,139.471059 131.789682,122.80676 127.926988,116.179688 C123.093301,107.886719 123.093301,102.630862 109.144697,97.3599607 C98.1980145,93.2234266 105.270861,94.5595531 88.5584199,88.1870956 C74.4246773,82.7978964 74.4192977,82.2197236 49.5655213,78.0615545 C30.3464324,80.6115245 20.4311297,81.8404257 19.8196133,81.7482581 C10.5595068,80.1353253 0.687883848,78.3380573 0.0326876347,71.9324098 Z M11,75 C9.42122628,73.1803279 8.06799166,71.2131148 6.98540397,69 C5.00065986,70.0327869 3.69253306,72.2459016 7.12072743,74.1147541 C8.33863858,74.7540984 9.6918732,74.9508197 11,75 Z" id="Shape-Copy"></path>
            </g>
        </g>
    </g>
</svg>